<svg id="Слой_1" data-name="Слой 1" xmlns="http://www.w3.org/2000/svg" xmlns:xlink="http://www.w3.org/1999/xlink" viewBox="0 0 126 68"><defs><style>.cls-1{fill:url(#linear-gradient);}.cls-2{fill:#fff;}.cls-3{mask:url(#mask);}.cls-4{opacity:0.35;fill:url(#Безымянный_градиент_18);}.cls-5{mask:url(#mask-2);}.cls-6{opacity:0.5;fill:url(#Безымянный_градиент_18-2);}.cls-7{mask:url(#mask-3);}.cls-8{opacity:0.2;fill:url(#Безымянный_градиент_18-3);}.cls-9{mask:url(#mask-4);}.cls-10{opacity:0.1;fill:url(#Безымянный_градиент_18-4);}.cls-11{filter:url(#luminosity-noclip-4);}.cls-12{filter:url(#luminosity-noclip-3);}.cls-13{filter:url(#luminosity-noclip-2);}.cls-14{filter:url(#luminosity-noclip);}</style><linearGradient id="linear-gradient" x1="55.48" y1="50.53" x2="195.97" y2="50.53" gradientUnits="userSpaceOnUse"><stop offset="0" stop-color="#fff" stop-opacity="0"/><stop offset="0.12" stop-color="#fff" stop-opacity="0.13"/><stop offset="0.73" stop-color="#fff" stop-opacity="0.75"/><stop offset="1" stop-color="#fff"/></linearGradient><filter id="luminosity-noclip" x="99.14" y="36.3" width="28.38" height="28.46" filterUnits="userSpaceOnUse" color-interpolation-filters="sRGB"><feFlood flood-color="#fff" result="bg"/><feBlend in="SourceGraphic" in2="bg"/></filter><mask id="mask" x="48.81" y="3.7" width="28.38" height="28.46" maskUnits="userSpaceOnUse"><g class="cls-14"/></mask><linearGradient id="Безымянный_градиент_18" x1="604.87" y1="10465.62" x2="604.87" y2="10520.87" gradientTransform="translate(667.87 10535.94) rotate(180)" gradientUnits="userSpaceOnUse"><stop offset="0" stop-color="#fff"/><stop offset="1" stop-color="#fff"/></linearGradient><filter id="luminosity-noclip-2" x="120.74" y="36.3" width="28.38" height="28.46" filterUnits="userSpaceOnUse" color-interpolation-filters="sRGB"><feFlood flood-color="#fff" result="bg"/><feBlend in="SourceGraphic" in2="bg"/></filter><mask id="mask-2" x="70.41" y="3.7" width="28.38" height="28.46" maskUnits="userSpaceOnUse"><g class="cls-13"/></mask><linearGradient id="Безымянный_градиент_18-2" x1="583.27" y1="10465.62" x2="583.27" y2="10520.87" xlink:href="#Безымянный_градиент_18"/><filter id="luminosity-noclip-3" x="77.54" y="36.3" width="28.38" height="28.46" filterUnits="userSpaceOnUse" color-interpolation-filters="sRGB"><feFlood flood-color="#fff" result="bg"/><feBlend in="SourceGraphic" in2="bg"/></filter><mask id="mask-3" x="27.21" y="3.7" width="28.38" height="28.46" maskUnits="userSpaceOnUse"><g class="cls-12"/></mask><linearGradient id="Безымянный_градиент_18-3" x1="626.47" y1="10465.62" x2="626.47" y2="10520.87" xlink:href="#Безымянный_градиент_18"/><filter id="luminosity-noclip-4" x="55.94" y="36.3" width="28.38" height="28.46" filterUnits="userSpaceOnUse" color-interpolation-filters="sRGB"><feFlood flood-color="#fff" result="bg"/><feBlend in="SourceGraphic" in2="bg"/></filter><mask id="mask-4" x="5.61" y="3.7" width="28.38" height="28.46" maskUnits="userSpaceOnUse"><g class="cls-11"/></mask><linearGradient id="Безымянный_градиент_18-4" x1="648.07" y1="10465.62" x2="648.07" y2="10520.87" xlink:href="#Безымянный_градиент_18"/></defs><title>icon-logo</title><path class="cls-1" d="M158.45,32.6H68.21a17.93,17.93,0,0,0,0,35.85h90.25A17.93,17.93,0,0,0,158.45,32.6Z" transform="translate(-50.33 -32.6)"/><path class="cls-2" d="M69,78.58V94.31H64.11V92.83a6.16,6.16,0,0,1-4.82,1.92,8.33,8.33,0,0,1,0-16.61,6.16,6.16,0,0,1,4.82,1.92V78.58H69Zm-4.85,7.86a3.85,3.85,0,1,0-3.85,3.84A3.64,3.64,0,0,0,64.11,86.45Z" transform="translate(-50.33 -32.6)"/><path class="cls-2" d="M89.92,86.45a8,8,0,0,1-7.73,8.3,6.16,6.16,0,0,1-4.82-1.92v7.77H72.52v-22h4.85v1.48a6.16,6.16,0,0,1,4.82-1.92A8,8,0,0,1,89.92,86.45Zm-4.85,0a3.85,3.85,0,1,0-3.85,3.84A3.64,3.64,0,0,0,85.07,86.45Z" transform="translate(-50.33 -32.6)"/><path class="cls-2" d="M110.06,86.45a8,8,0,0,1-7.73,8.3,6.16,6.16,0,0,1-4.82-1.92v7.77H92.66v-22h4.85v1.48a6.16,6.16,0,0,1,4.82-1.92A8,8,0,0,1,110.06,86.45Zm-4.85,0a3.85,3.85,0,1,0-3.85,3.84A3.64,3.64,0,0,0,105.21,86.45Z" transform="translate(-50.33 -32.6)"/><path class="cls-2" d="M118.63,83.11v5.57c0,1.35,1.2,1.48,3.33,1.35v4.28c-6.34.63-8.18-1.23-8.18-5.63V83.11h-2.59V78.58h2.59v-3l4.85-1.42v4.4H122v4.53h-3.33Z" transform="translate(-50.33 -32.6)"/><path class="cls-2" d="M132.6,90.54a4.28,4.28,0,0,0,3.1-1.2l3.88,2.17a8.29,8.29,0,0,1-7,3.24c-5.53,0-9-3.62-9-8.3s3.49-8.3,8.6-8.3a8,8,0,0,1,8.21,8.3,8.9,8.9,0,0,1-.19,1.89H128.72C129.33,90,130.82,90.54,132.6,90.54Zm3-5.73a3.67,3.67,0,0,0-7,0h7Z" transform="translate(-50.33 -32.6)"/><path class="cls-2" d="M142.17,86.45a8.27,8.27,0,0,1,8.57-8.3,8.38,8.38,0,0,1,7.31,4l-4.24,2.39a3.36,3.36,0,0,0-3.14-1.76,3.65,3.65,0,1,0,0,7.3,3.33,3.33,0,0,0,3.14-1.76L158,90.69A8.59,8.59,0,0,1,142.17,86.45Z" transform="translate(-50.33 -32.6)"/><path class="cls-2" d="M175.51,84.65v9.66h-4.85v-9a2.63,2.63,0,0,0-2.81-2.86c-1.78,0-3,1-3,3.24v8.59H160v-22h4.85v7.77a5.6,5.6,0,0,1,4.62-1.92C172.73,78.14,175.51,80.41,175.51,84.65Z" transform="translate(-50.33 -32.6)"/><ellipse class="cls-2" cx="106.2" cy="17.93" rx="14.19" ry="14.23"/><g class="cls-3"><ellipse class="cls-4" cx="63" cy="17.93" rx="14.19" ry="14.23"/></g><g class="cls-5"><ellipse class="cls-6" cx="84.6" cy="17.93" rx="14.19" ry="14.23"/></g><g class="cls-7"><ellipse class="cls-8" cx="41.4" cy="17.93" rx="14.19" ry="14.23"/></g><g class="cls-9"><ellipse class="cls-10" cx="19.8" cy="17.93" rx="14.19" ry="14.23"/></g></svg>