<?xml version="1.0" encoding="utf-8"?>
<!-- Generator: Adobe Illustrator 19.2.1, SVG Export Plug-In . SVG Version: 6.00 Build 0)  -->
<svg version="1.1" id="Layer_1" xmlns="http://www.w3.org/2000/svg" xmlns:xlink="http://www.w3.org/1999/xlink" x="0px" y="0px"
	 viewBox="0 0 37.8 18" style="enable-background:new 0 0 37.8 18;" xml:space="preserve">
<style type="text/css">
	.st0{fill:#FFFFFF;}
</style>
<title>php-text2</title>
<path class="st0" d="M27,18h-3l2.6-14.2h0.2c1.9,0,3.8,0,5.7,0c0.5,0,1.1,0.1,1.6,0.2C35.9,4.3,37,5.9,37,7.6
	c0.1,2.1-0.8,4.1-2.4,5.3c-1,0.8-2.3,1.3-3.6,1.2c-1,0-2,0-3,0c-0.2,0-0.3,0.1-0.3,0.2c0,0,0,0,0,0.1C27.5,15.7,27.3,16.8,27,18z
	 M28.2,12c1,0,2,0,2.9-0.1c1.2-0.1,2.2-0.9,2.5-2.1c0.2-0.6,0.3-1.2,0.3-1.9c0.1-0.8-0.3-1.5-1.1-1.7c-0.1,0-0.1,0-0.2,0
	C31.5,6,30.4,6,29.3,6L28.2,12z"/>
<path class="st0" d="M3.9,18H1L3.6,3.8h0.3c1.9,0,3.7,0,5.6,0c0.5,0,1.1,0.1,1.6,0.2c1.6,0.3,2.7,1.7,2.8,3.4c0.3,3-1.5,5.7-4.2,6.6
	c-0.6,0.2-1.2,0.2-1.8,0.3c-1,0-1.9,0-2.9,0c-0.1,0-0.3,0.1-0.3,0.2c0,0,0,0,0,0.1C4.4,15.6,4.1,16.8,3.9,18z M5,12c1,0,2,0,2.9-0.1
	c1.2-0.1,2.2-0.9,2.5-2.2c0.2-0.6,0.3-1.2,0.3-1.8c0.1-0.8-0.3-1.5-1.1-1.7c-0.1,0-0.2,0-0.2,0C8.4,6,7.3,6,6.2,5.9L5,12z"/>
<path class="st0" d="M15.9,0h2.9l-0.7,3.8c0.8,0,1.6,0,2.3,0c0.8,0,1.5,0.1,2.3,0.2c1.3,0.1,2.2,1.3,2.1,2.7c0,0.2,0,0.3-0.1,0.5
	c-0.3,1.9-0.7,3.9-1.1,5.8c-0.1,0.3-0.1,0.7-0.2,1c0,0.1-0.1,0.2-0.2,0.2c-1,0-1.8,0-2.8,0l0.5-2.7c0.2-1.3,0.5-2.6,0.7-3.9
	c0.2-0.6-0.1-1.2-0.6-1.4C21,6.1,20.8,6,20.6,6.1c-1,0-1.9,0-2.9,0l-1.5,8.1h-3L15.9,0z"/>
</svg>
