<svg id="Слой_1" data-name="Слой 1" xmlns="http://www.w3.org/2000/svg" viewBox="0 0 24 17"><title>js-text</title><g id="Layer_1" data-name="Layer 1"><path d="M246.42,184.57h4V195c0,4.69-2.42,6.33-6.28,6.33a11.2,11.2,0,0,1-2.94-.39l0.45-3a7,7,0,0,0,2,.29c1.68,0,2.73-.71,2.73-3.25V184.57Z" transform="translate(-241.19 -184.31)"/><path d="M253.87,197.23a10.72,10.72,0,0,0,4.44,1c1.84,0,2.81-.71,2.81-1.81s-0.84-1.61-3-2.3c-2.94-1-4.88-2.49-4.88-4.91,0-2.81,2.55-4.93,6.7-4.93a11,11,0,0,1,4.52.83l-0.89,3a8.8,8.8,0,0,0-3.68-.78c-1.73,0-2.57.76-2.57,1.59,0,1.05,1,1.51,3.28,2.34,3.12,1.07,4.57,2.59,4.57,4.93,0,2.76-2.26,5.1-7.12,5.1a12.27,12.27,0,0,1-5-1Z" transform="translate(-241.19 -184.31)"/></g></svg>